<svg width="256" height="256" viewBox="0 0 256 256" fill="none" xmlns="http://www.w3.org/2000/svg">
  <defs>
    <linearGradient id="modern_gradient" x1="0" y1="0" x2="256" y2="256" gradientUnits="userSpaceOnUse">
      <stop offset="0%" stop-color="#4facfe" />
      <stop offset="100%" stop-color="#00f2fe" />
    </linearGradient>
    <filter id="drop_shadow" x="-50%" y="-50%" width="200%" height="200%">
      <feDropShadow dx="0" dy="4" stdDeviation="6" flood-color="#000000" flood-opacity="0.15"/>
    </filter>
  </defs>
  
  <rect width="256" height="256" rx="50" fill="url(#modern_gradient)" />
  
  <g transform="translate(53, 53) scale(6.25)" filter="url(#drop_shadow)">
    <path fill-rule="evenodd" clip-rule="evenodd" d="M4.5 3.75a3 3 0 0 0-3 3v10.5a3 3 0 0 0 3 3h15a3 3 0 0 0 3-3V6.75a3 3 0 0 0-3-3h-15Zm4.125 3a2.25 2.25 0 1 0 0 4.5 2.25 2.25 0 0 0 0-4.5Zm-3.873 8.703a4.126 4.126 0 0 1 7.746 0 .75.75 0 0 1-.351.92 7.47 7.47 0 0 1-3.522.877 7.47 7.47 0 0 1-3.522-.877.75.75 0 0 1-.351-.92ZM15 8.25a.75.75 0 0 0 0 1.5h3.75a.75.75 0 0 0 0-1.5H15ZM14.25 12a.75.75 0 0 1 .75-.75h3.75a.75.75 0 0 1 0 1.5H15a.75.75 0 0 1-.75-.75Zm.75 2.25a.75.75 0 0 0 0 1.5h3.75a.75.75 0 0 0 0-1.5H15Z" fill="white"/>
  </g>
</svg>
